<?xml version="1.0" encoding="UTF-8"?>
<svg id="Layer_1" xmlns="http://www.w3.org/2000/svg" version="1.1" xmlns:xlink="http://www.w3.org/1999/xlink" viewBox="0 0 334 135">
  <!-- Generator: Adobe Illustrator 29.0.0, SVG Export Plug-In . SVG Version: 2.1.0 Build 186)  -->
  <defs>
    <style>
      .st0 {
        fill: #fa58b6;
      }

      .st1 {
        fill: url(#linear-gradient1);
      }

      .st2 {
        fill: none;
      }

      .st3 {
        fill: url(#linear-gradient);
      }
    </style>
    <linearGradient id="linear-gradient" x1="247.64" y1="39.56" x2="317.07" y2="39.56" gradientUnits="userSpaceOnUse">
      <stop offset="0" stop-color="#fa58b6"/>
      <stop offset="1" stop-color="#ffcad4"/>
    </linearGradient>
    <linearGradient id="linear-gradient1" x1="78.79" y1="49.27" x2="63.89" y2="39.2" xlink:href="#linear-gradient"/>
  </defs>
  <g>
    <path class="st0" d="M26.11,100.28c-.74,1.92-2.11,2.7-4.13,2.35-1.89-.74-2.67-2.1-2.35-4.08l3.22-11.81c.64-2.21,1.85-4,3.62-5.38,1.78-1.38,3.78-2.06,6.02-2.06h.48c2.24,0,4.25.69,6.02,2.06,1.78,1.38,2.98,3.17,3.62,5.38l3.22,11.81c.32,2.02-.48,3.38-2.4,4.08-.29.06-.58.1-.86.1-.74,0-1.4-.22-1.99-.67-.59-.45-1-1.04-1.22-1.78l-3.17-11.81c-.64-1.63-1.71-2.45-3.22-2.45h-.48c-1.5,0-2.58.82-3.22,2.45l-3.17,11.81ZM52.03,111.8c.83,0,1.56.28,2.18.84.62.56.97,1.27,1.03,2.14,0,.93-.3,1.7-.89,2.3-.59.61-1.34.91-2.23.91h-24.82c-1.76,0-3.27-.62-4.54-1.87-1.26-1.25-1.9-2.77-1.9-4.56v-4.27c0-.96.34-1.78,1.03-2.47s1.51-1.03,2.47-1.03,1.83.34,2.52,1.03c.69.69,1.03,1.51,1.03,2.47v2.88c0,.9.53,1.44,1.58,1.63h22.51ZM55.1,102.96c0,.96-.34,1.78-1.01,2.47-.67.69-1.49,1.03-2.45,1.03s-1.78-.34-2.47-1.03c-.69-.69-1.03-1.51-1.03-2.47v-20.16c0-.96.34-1.78,1.03-2.47s1.51-1.03,2.47-1.03,1.78.34,2.45,1.03c.67.69,1.01,1.51,1.01,2.47v20.16Z"/>
    <path class="st0" d="M65.71,116.12c-1.73-.77-2.38-2.08-1.97-3.94l2.26-6.67c.86-2.43,2.45-4.14,4.75-5.14v-11.28h-3.84c-.83,0-1.55-.3-2.16-.91-.61-.61-.91-1.33-.91-2.16s.3-1.6.91-2.21c.61-.61,1.33-.91,2.16-.91h3.84v-.82c0-.93.32-1.72.96-2.38.64-.66,1.42-.98,2.35-.98s1.72.33,2.38.98c.66.66.98,1.45.98,2.38v.82h3.79c.86,0,1.59.3,2.18.91.59.61.89,1.34.89,2.21s-.3,1.55-.89,2.16c-.59.61-1.32.91-2.18.91h-3.79v11.28c2.27.99,3.84,2.7,4.7,5.14l2.26,6.67c.42,1.86-.24,3.17-1.97,3.94-.32.1-.64.14-.96.14-.67,0-1.27-.18-1.8-.55-.53-.37-.92-.89-1.18-1.56l-2.21-6.67c-.48-1.06-1.22-1.58-2.21-1.58s-1.73.53-2.21,1.58l-2.21,6.67c-.77,1.73-2.08,2.38-3.94,1.97ZM89.33,117.03c-.86,0-1.59-.3-2.18-.91-.59-.61-.89-1.34-.89-2.21v-14.06h-2.59c-.86,0-1.6-.3-2.21-.91-.61-.61-.91-1.34-.91-2.21s.3-1.55.91-2.16c.61-.61,1.34-.91,2.21-.91h2.59v-11.09c0-.83.3-1.55.89-2.16.59-.61,1.32-.91,2.18-.91s1.6.3,2.21.91c.61.61.91,1.33.91,2.16v31.34c0,.86-.3,1.6-.91,2.21-.61.61-1.34.91-2.21.91ZM97.15,79.49c.83,0,1.55.3,2.16.91.61.61.91,1.33.91,2.16v31.34c0,.86-.3,1.6-.91,2.21-.61.61-1.33.91-2.16.91s-1.6-.3-2.21-.91-.91-1.34-.91-2.21v-31.34c0-.83.3-1.55.91-2.16s1.34-.91,2.21-.91Z"/>
    <path class="st0" d="M113.3,80.33c.69.69,1.03,1.51,1.03,2.47v3.31h10.7v-3.31c0-.96.34-1.78,1.01-2.47.67-.69,1.49-1.03,2.45-1.03s1.78.34,2.45,1.03c.67.69,1.01,1.51,1.01,2.47v3.36c.54-.48,1.18-.72,1.92-.72h2.35v-2.64c0-.96.34-1.78,1.01-2.47.67-.69,1.49-1.03,2.45-1.03s1.78.34,2.45,1.03c.67.69,1.01,1.51,1.01,2.47v20.16c0,.96-.34,1.78-1.01,2.47-.67.69-1.49,1.03-2.45,1.03s-1.78-.34-2.45-1.03c-.67-.69-1.01-1.51-1.01-2.47v-3.07h-2.35c-.74,0-1.38-.24-1.92-.72v.34c0,.9-.31,1.66-.94,2.28s-1.37.94-2.23.94h-12.58c-2.43,0-4.51-.86-6.24-2.59s-2.59-3.81-2.59-6.24v-11.09c0-.96.34-1.78,1.01-2.47.67-.69,1.49-1.03,2.45-1.03s1.78.34,2.47,1.03ZM114.48,117.99c-1.76,0-3.26-.62-4.51-1.87s-1.87-2.77-1.87-4.56v-4.27c0-.96.34-1.78,1.03-2.47s1.51-1.03,2.47-1.03,1.78.34,2.47,1.03c.69.69,1.03,1.51,1.03,2.47v2.88c0,.9.53,1.44,1.58,1.63h23.81c.86,0,1.61.28,2.23.84.62.56.95,1.27.98,2.14,0,.93-.3,1.7-.89,2.3-.59.61-1.32.91-2.18.91h-26.16ZM125.04,92.31h-10.7v1.01c0,.9.31,1.66.94,2.28s1.38.94,2.28.94h7.49v-4.22ZM133.87,91.06c-.74,0-1.38-.24-1.92-.72v4.66c.54-.48,1.18-.72,1.92-.72h2.35v-3.22h-2.35Z"/>
    <path class="st0" d="M152.98,116.88c-.86,0-1.6-.3-2.21-.91-.61-.61-.91-1.34-.91-2.21s.3-1.59.91-2.18c.61-.59,1.34-.89,2.21-.89h7.3v-4.27c0-.13.02-.24.05-.34-2.78-.29-5.1-1.42-6.94-3.38-1.84-1.97-2.76-4.34-2.76-7.13,0-2.5.78-4.7,2.35-6.62-.8-.1-1.46-.43-1.97-1.01-.51-.58-.77-1.26-.77-2.06,0-.86.3-1.6.91-2.21s1.33-.91,2.16-.91h6.62v-.67c0-.96.34-1.78,1.01-2.45.67-.67,1.49-1.01,2.45-1.01s1.78.34,2.47,1.01c.69.67,1.03,1.49,1.03,2.45v.67h6.58c.83,0,1.55.3,2.16.91.61.61.91,1.34.91,2.21,0,.8-.26,1.49-.77,2.06-.51.58-1.17.91-1.97,1.01,1.57,1.92,2.35,4.13,2.35,6.62,0,2.78-.92,5.16-2.76,7.13-1.84,1.97-4.15,3.1-6.94,3.38.03.1.05.21.05.34v4.27h7.3c.86,0,1.6.3,2.21.89.61.59.91,1.32.91,2.18s-.3,1.6-.91,2.21c-.61.61-1.34.91-2.21.91h-20.83ZM158.57,98.67c.85.85,1.86,1.27,3.05,1.27h3.55c1.18,0,2.2-.42,3.05-1.27s1.27-1.88,1.27-3.1-.42-2.2-1.27-3.05c-.85-.85-1.86-1.27-3.05-1.27h-3.55c-1.18,0-2.2.42-3.05,1.27s-1.27,1.86-1.27,3.05.42,2.25,1.27,3.1ZM186.29,93.36c.86,0,1.59.3,2.18.91.59.61.89,1.33.89,2.16s-.3,1.6-.89,2.21c-.59.61-1.32.91-2.18.91h-1.34v14.88c0,.96-.34,1.79-1.01,2.5-.67.7-1.49,1.06-2.45,1.06s-1.78-.35-2.47-1.06c-.69-.7-1.03-1.54-1.03-2.5v-31.54c0-.99.34-1.84,1.03-2.54.69-.7,1.51-1.06,2.47-1.06s1.78.35,2.45,1.06c.67.7,1.01,1.55,1.01,2.54v10.46h1.34Z"/>
    <path class="st0" d="M197.23,117.03c-.86,0-1.6-.3-2.21-.91s-.91-1.34-.91-2.21.3-1.55.91-2.16c.61-.61,1.34-.91,2.21-.91h11.9v-4.56h-4.7c-2.43,0-4.51-.86-6.24-2.59s-2.59-3.81-2.59-6.24v-14.45c0-.96.34-1.78,1.01-2.45s1.49-1.01,2.45-1.01,1.78.34,2.47,1.01c.69.67,1.03,1.49,1.03,2.45v5.76h19.39v-5.76c0-.96.34-1.78,1.03-2.45.69-.67,1.51-1.01,2.47-1.01s1.78.34,2.45,1.01c.67.67,1.01,1.49,1.01,2.45v20.06c0,.9-.31,1.66-.94,2.28s-1.38.94-2.28.94h-9.6v4.56h11.9c.86,0,1.6.3,2.21.91.61.61.91,1.33.91,2.16s-.3,1.6-.91,2.21c-.61.61-1.34.91-2.21.91h-30.77ZM202.56,96.87c0,.9.31,1.66.94,2.28s1.38.94,2.28.94h16.18v-5.14h-19.39v1.92Z"/>
    <path class="st0" d="M240.67,117.03c-.86,0-1.6-.3-2.21-.91-.61-.61-.91-1.34-.91-2.21s.3-1.55.91-2.16,1.34-.91,2.21-.91h10.18v-12.82c0-.99.34-1.84,1.01-2.54.67-.7,1.49-1.06,2.45-1.06s1.78.35,2.45,1.06c.67.7,1.01,1.55,1.01,2.54v12.82h13.68c.86,0,1.6.3,2.21.91.61.61.91,1.33.91,2.16s-.3,1.6-.91,2.21c-.61.61-1.34.91-2.21.91h-30.77ZM269.23,107.33c-.96,0-1.78-.34-2.45-1.01s-1.01-1.49-1.01-2.45v-14.21c0-.86-.31-1.62-.94-2.26-.62-.64-1.38-.96-2.28-.96h-20.06c-.86,0-1.59-.3-2.18-.89-.59-.59-.89-1.32-.89-2.18s.3-1.6.89-2.21c.59-.61,1.32-.91,2.18-.91h21.41c2.43,0,4.51.86,6.24,2.59s2.59,3.81,2.59,6.24v14.78c0,.96-.34,1.78-1.03,2.45-.69.67-1.51,1.01-2.47,1.01Z"/>
    <path class="st0" d="M313.87,117.03c-.96,0-1.78-.34-2.45-1.01-.67-.67-1.01-1.49-1.01-2.45v-14.11h-2.3c-.86,0-1.6-.3-2.21-.91l1.78,13.78c.06,2.11-.94,3.41-3.02,3.89h-.43c-.86,0-1.62-.28-2.28-.84-.66-.56-1.05-1.29-1.18-2.18l-3.07-23.95c-.13-.83-.49-1.51-1.08-2.04-.59-.53-1.29-.79-2.09-.79s-1.5.26-2.11.79c-.61.53-.98,1.21-1.1,2.04l-3.07,23.95c-.45,2.08-1.74,3.09-3.89,3.02-2.08-.48-3.07-1.78-2.98-3.89l3.07-24c.38-2.56,1.52-4.67,3.41-6.34,1.89-1.66,4.11-2.5,6.67-2.5s4.74.83,6.65,2.5c1.9,1.66,3.05,3.78,3.43,6.34l.82,6.48c.64-1.02,1.54-1.54,2.69-1.54h2.3v-10.32c0-.96.34-1.78,1.01-2.45.67-.67,1.49-1.01,2.45-1.01s1.78.34,2.45,1.01c.67.67,1.01,1.49,1.01,2.45v30.62c0,.96-.34,1.78-1.01,2.45-.67.67-1.49,1.01-2.45,1.01Z"/>
  </g>
  <g>
    <path class="st0" d="M126.88,11.88h-38.78c-1.75,0-3.27.61-4.51,1.83-1.25,1.22-1.89,2.74-1.89,4.5s.63,3.28,1.87,4.52c1.24,1.24,2.77,1.88,4.53,1.88h12.99v35.53c0,1.76.63,3.28,1.87,4.53s2.77,1.87,4.53,1.87,3.21-.63,4.46-1.88c1.24-1.24,1.87-2.77,1.87-4.52V24.61h13.06c1.77,0,3.28-.63,4.5-1.89,1.21-1.24,1.83-2.76,1.83-4.51s-.62-3.27-1.84-4.49c-1.22-1.22-2.73-1.84-4.49-1.84Z"/>
    <path class="st0" d="M189.02,34.15c1.01-1.99,1.52-4.19,1.52-6.55,0-4.08-1.49-7.64-4.43-10.58s-6.5-4.43-10.58-4.43h-26.88c-1.76,0-3.28.63-4.53,1.87-1.24,1.24-1.87,2.77-1.87,4.53v41.16c0,1.76.63,3.28,1.87,4.53,1.24,1.24,2.77,1.87,4.53,1.87h28.63c5.06,0,9.43-1.81,13-5.37,3.57-3.57,5.37-7.92,5.37-12.93,0-3.09-.71-5.95-2.11-8.52-1.17-2.14-2.69-4.01-4.52-5.57ZM177.28,53.81h-22.3v-11.14h22.3c1.56,0,2.85.53,3.94,1.62,1.09,1.1,1.63,2.39,1.63,3.95s-.53,2.85-1.63,3.94-2.38,1.63-3.94,1.63ZM154.98,29.88v-4.56h20.55c.63,0,1.13.22,1.6.68.46.47.68.97.68,1.6,0,.67-.21,1.18-.66,1.62-.47.45-.98.66-1.62.66h-20.55Z"/>
    <path class="st3" d="M311.6,53.81h-84.27c-3.96,0-7.26-1.37-10.07-4.18-2.81-2.81-4.18-6.11-4.18-10.07s1.37-7.26,4.18-10.07c2.81-2.81,6.11-4.18,10.07-4.18h18.27c1.75,0,3.27-.61,4.51-1.83,1.25-1.22,1.89-2.74,1.89-4.5s-.63-3.28-1.88-4.53c-1.24-1.24-2.77-1.87-4.53-1.87h-18.27c-4.92,0-9.49,1.24-13.58,3.68-4.07,2.43-7.36,5.71-9.76,9.76-2.42,4.07-3.64,8.62-3.64,13.54s1.22,9.48,3.64,13.57c2.41,4.08,5.69,7.36,9.77,9.77,4.09,2.41,8.66,3.64,13.57,3.64h84.27c1.76,0,3.28-.63,4.53-1.88,1.24-1.25,1.87-2.77,1.87-4.52s-.63-3.21-1.88-4.46c-1.24-1.24-2.77-1.87-4.53-1.87Z"/>
  </g>
  <g>
    <polygon class="st2" points="58.91 46.82 62.1 41.68 62.1 41.6 58.91 46.82"/>
    <path class="st0" d="M74.9,18.98c0-1.97-.78-4.62-4.52-6.09l-.23-.07c-2.95-.65-5.38.32-7.06,2.85l-16.29,26.55L30.46,15.61c-1.71-2.47-4.13-3.43-7.02-2.78l-.22.07c-3.74,1.47-4.52,4.12-4.52,6.09v41.16c0,1.76.63,3.28,1.87,4.53,1.24,1.24,2.77,1.87,4.53,1.87s3.21-.63,4.46-1.88c1.24-1.24,1.87-2.77,1.87-4.52v-18.54l9.89,16.17.5.63c.04.06.08.12.12.17.13.2.3.37.49.51l.23.23s.06.06.09.08l.03.71h1.02l.28.28h.39c.06.02.12.05.18.06.07.03.15.06.23.08.2.08.41.12.62.13.05.01.1.02.15.03.19.07.39.11.59.11h1.12c.16,0,.32-.02.47-.07h1.52v-.35h.11l.29-.3,1.14-.05v-.72l.4-.35c.07-.07.14-.15.21-.24.07-.06.13-.12.18-.19l.75-.03v-1.08l6.48-10.6h0s0,0,0,0l3.19-5.21v.08l12.8-20.61v-2.09Z"/>
    <path class="st1" d="M62.1,41.68v18.46c0,1.76.63,3.28,1.87,4.53s2.77,1.87,4.53,1.87,3.28-.63,4.53-1.88c1.24-1.24,1.87-2.77,1.87-4.52V21.08l-12.8,20.61Z"/>
  </g>
  <path class="st0" d="M256.72,85.52c1.93,0,1.93-3,0-3s-1.93,3,0,3h0Z"/>
</svg>